<svg width="396pt" height="590pt" viewBox="0.00 0.00 396.00 590.00" xmlns="http://www.w3.org/2000/svg" xmlns:xlink="http://www.w3.org/1999/xlink">
<g id="graph0" class="graph" transform="scale(1 1) rotate(0) translate(4 586.4)">
<title>G</title>
<polygon fill="white" stroke="none" points="-4,4 -4,-586.4 392,-586.4 392,4 -4,4"/>
<g id="clust1" class="cluster">
<title>cluster_fontes</title>
<polygon fill="#f0f7f0" stroke="black" points="67,-408.8 67,-574.4 249,-574.4 249,-408.8 67,-408.8"/>
<text xml:space="preserve" text-anchor="middle" x="158" y="-557.8" font-family="Times,serif" font-size="14.00">Fontes de Dados Externas</text>
</g>
<g id="clust2" class="cluster">
<title>cluster_processamento</title>
<polygon fill="#fff9e6" stroke="black" points="8,-119.6 8,-374 380,-374 380,-119.6 8,-119.6"/>
<text xml:space="preserve" text-anchor="middle" x="194" y="-357.4" font-family="Times,serif" font-size="14.00">Processamento de Dados</text>
</g>
<g id="clust3" class="cluster">
<title>cluster_backend</title>
<polygon fill="#fff0e6" stroke="black" points="67,-8 67,-84.8 265,-84.8 265,-8 67,-8"/>
<text xml:space="preserve" text-anchor="middle" x="166" y="-68.2" font-family="Times,serif" font-size="14.00">Backend API</text>
</g>
<!-- inmetro -->
<g id="node1" class="node">
<title>inmetro</title>
<path fill="#c8e6c9" stroke="black" d="M227.5,-541.6C227.5,-541.6 88.5,-541.6 88.5,-541.6 82.5,-541.6 76.5,-535.6 76.5,-529.6 76.5,-529.6 76.5,-517.6 76.5,-517.6 76.5,-511.6 82.5,-505.6 88.5,-505.6 88.5,-505.6 227.5,-505.6 227.5,-505.6 233.5,-505.6 239.5,-511.6 239.5,-517.6 239.5,-517.6 239.5,-529.6 239.5,-529.6 239.5,-535.6 233.5,-541.6 227.5,-541.6"/>
<text xml:space="preserve" text-anchor="middle" x="158" y="-519.4" font-family="Helvetica,sans-Serif" font-size="14.00">INMETRO (PBEV PDF)</text>
</g>
<!-- convertio -->
<g id="node2" class="node">
<title>convertio</title>
<path fill="#c8e6c9" stroke="black" d="M229.27,-452.8C229.27,-452.8 86.73,-452.8 86.73,-452.8 80.73,-452.8 74.73,-446.8 74.73,-440.8 74.73,-440.8 74.73,-428.8 74.73,-428.8 74.73,-422.8 80.73,-416.8 86.73,-416.8 86.73,-416.8 229.27,-416.8 229.27,-416.8 235.27,-416.8 241.27,-422.8 241.27,-428.8 241.27,-428.8 241.27,-440.8 241.27,-440.8 241.27,-446.8 235.27,-452.8 229.27,-452.8"/>
<text xml:space="preserve" text-anchor="middle" x="158" y="-430.6" font-family="Helvetica,sans-Serif" font-size="14.00">Convertio (PDF -&gt; CSV)</text>
</g>
<!-- inmetro&#45;&gt;convertio -->
<g id="edge1" class="edge">
<title>inmetro-&gt;convertio</title>
<path fill="none" stroke="black" d="M158,-505.2C158,-505.2 158,-464.69 158,-464.69"/>
<polygon fill="black" stroke="black" points="161.5,-464.69 158,-454.69 154.5,-464.69 161.5,-464.69"/>
<text xml:space="preserve" text-anchor="middle" x="197.68" y="-475" font-family="Helvetica,sans-Serif" font-size="14.00">  Baixar PDF</text>
</g>
<!-- jupyter -->
<g id="node3" class="node">
<title>jupyter</title>
<path fill="#fffde7" stroke="black" d="M241.15,-341.2C241.15,-341.2 74.85,-341.2 74.85,-341.2 68.85,-341.2 62.85,-335.2 62.85,-329.2 62.85,-329.2 62.85,-317.2 62.85,-317.2 62.85,-311.2 68.85,-305.2 74.85,-305.2 74.85,-305.2 241.15,-305.2 241.15,-305.2 247.15,-305.2 253.15,-311.2 253.15,-317.2 253.15,-317.2 253.15,-329.2 253.15,-329.2 253.15,-335.2 247.15,-341.2 241.15,-341.2"/>
<text xml:space="preserve" text-anchor="middle" x="158" y="-319" font-family="Helvetica,sans-Serif" font-size="14.00">Jupyter Notebook (fix.ipynb)</text>
</g>
<!-- convertio&#45;&gt;jupyter -->
<g id="edge2" class="edge">
<title>convertio-&gt;jupyter</title>
<path fill="none" stroke="black" d="M158,-416.37C158,-416.37 158,-353.17 158,-353.17"/>
<polygon fill="black" stroke="black" points="161.5,-353.17 158,-343.17 154.5,-353.17 161.5,-353.17"/>
<text xml:space="preserve" text-anchor="middle" x="196.12" y="-386.2" font-family="Helvetica,sans-Serif" font-size="14.00">  Gerar CSV</text>
</g>
<!-- dados_corrigidos -->
<g id="node4" class="node">
<title>dados_corrigidos</title>
<path fill="#fffde7" stroke="black" d="M216.08,-252.4C216.08,-252.4 115.92,-252.4 115.92,-252.4 109.92,-252.4 103.92,-246.4 103.92,-240.4 103.92,-240.4 103.92,-228.4 103.92,-228.4 103.92,-222.4 109.92,-216.4 115.92,-216.4 115.92,-216.4 216.08,-216.4 216.08,-216.4 222.08,-216.4 228.08,-222.4 228.08,-228.4 228.08,-228.4 228.08,-240.4 228.08,-240.4 228.08,-246.4 222.08,-252.4 216.08,-252.4"/>
<text xml:space="preserve" text-anchor="middle" x="166" y="-230.2" font-family="Helvetica,sans-Serif" font-size="14.00">Dados Corrigidos</text>
</g>
<!-- jupyter&#45;&gt;dados_corrigidos -->
<g id="edge3" class="edge">
<title>jupyter-&gt;dados_corrigidos</title>
<path fill="none" stroke="black" d="M145.31,-304.8C145.31,-304.8 145.31,-264.29 145.31,-264.29"/>
<polygon fill="black" stroke="black" points="148.81,-264.29 145.31,-254.29 141.81,-264.29 148.81,-264.29"/>
<text xml:space="preserve" text-anchor="middle" x="107.92" y="-274.6" font-family="Helvetica,sans-Serif" font-size="14.00">  Limpeza e Tratamento</text>
</g>
<!-- dados_corrigidos&#45;&gt;jupyter -->
<g id="edge4" class="edge">
<title>dados_corrigidos-&gt;jupyter</title>
<path fill="none" stroke="black" d="M186.69,-264.31C186.69,-264.31 186.69,-304.82 186.69,-304.82"/>
<polygon fill="black" stroke="black" points="190.19,-264.31 186.69,-254.31 183.19,-264.31 190.19,-264.31"/>
<text xml:space="preserve" text-anchor="middle" x="288.66" y="-274.6" font-family="Helvetica,sans-Serif" font-size="14.00">  Retrabalho / Refinamento</text>
</g>
<!-- dados_finais -->
<g id="node5" class="node">
<title>dados_finais</title>
<path fill="#fffde7" stroke="black" d="M265.88,-163.6C265.88,-163.6 66.12,-163.6 66.12,-163.6 60.12,-163.6 54.12,-157.6 54.12,-151.6 54.12,-151.6 54.12,-139.6 54.12,-139.6 54.12,-133.6 60.12,-127.6 66.12,-127.6 66.12,-127.6 265.88,-127.6 265.88,-127.6 271.88,-127.6 277.88,-133.6 277.88,-139.6 277.88,-139.6 277.88,-151.6 277.88,-151.6 277.88,-157.6 271.88,-163.6 265.88,-163.6"/>
<text xml:space="preserve" text-anchor="middle" x="166" y="-141.4" font-family="Helvetica,sans-Serif" font-size="14.00">Dados Corrigidos sem Duplicatas</text>
</g>
<!-- dados_corrigidos&#45;&gt;dados_finais -->
<g id="edge5" class="edge">
<title>dados_corrigidos-&gt;dados_finais</title>
<path fill="none" stroke="black" d="M166,-216C166,-216 166,-175.49 166,-175.49"/>
<polygon fill="black" stroke="black" points="169.5,-175.49 166,-165.49 162.5,-175.49 169.5,-175.49"/>
<text xml:space="preserve" text-anchor="middle" x="232.91" y="-185.8" font-family="Helvetica,sans-Serif" font-size="14.00">  Remover Duplicatas</text>
</g>
<!-- api -->
<g id="node6" class="node">
<title>api</title>
<path fill="#ffccbc" stroke="black" d="M245.25,-52C245.25,-52 86.75,-52 86.75,-52 80.75,-52 74.75,-46 74.75,-40 74.75,-40 74.75,-28 74.75,-28 74.75,-22 80.75,-16 86.75,-16 86.75,-16 245.25,-16 245.25,-16 251.25,-16 257.25,-22 257.25,-28 257.25,-28 257.25,-40 257.25,-40 257.25,-46 251.25,-52 245.25,-52"/>
<text xml:space="preserve" text-anchor="middle" x="166" y="-29.8" font-family="Helvetica,sans-Serif" font-size="14.00">API Python (Flask - api.py)</text>
</g>
<!-- dados_finais&#45;&gt;api -->
<g id="edge6" class="edge">
<title>dados_finais-&gt;api</title>
<path fill="none" stroke="black" d="M166,-127.17C166,-127.17 166,-63.97 166,-63.97"/>
<polygon fill="black" stroke="black" points="169.5,-63.97 166,-53.97 162.5,-63.97 169.5,-63.97"/>
<text xml:space="preserve" text-anchor="middle" x="210.35" y="-97" font-family="Helvetica,sans-Serif" font-size="14.00">  Alimenta API</text>
</g>
</g>
</svg>